<svg width="296" height="296" viewBox="0 0 296 296" fill="none" xmlns="http://www.w3.org/2000/svg">
<path fill-rule="evenodd" clip-rule="evenodd" d="M10 0H73V4H10C6.68629 4 4 6.68629 4 10V79.5H0V10C0 4.47716 4.47715 0 10 0ZM0 229.5V286C0 291.523 4.47716 296 10 296H73V292H10C6.68629 292 4 289.314 4 286V229.5H0ZM292 229.5V286C292 289.314 289.314 292 286 292H223V296H286C291.523 296 296 291.523 296 286V229.5H292ZM296 79.5V10C296 4.47715 291.523 0 286 0H223V4H286C289.314 4 292 6.68629 292 10V79.5H296Z" fill="white"/>
</svg>
