<svg width="90" height="90" viewBox="0 0 90 90" fill="none" xmlns="http://www.w3.org/2000/svg">
<path d="M48.7502 33.75C48.7502 35.821 47.0712 37.5 45.0002 37.5C42.9291 37.5 41.2502 35.821 41.2502 33.75C41.2502 31.6789 42.9291 30 45.0002 30C47.0712 30 48.7502 31.6789 48.7502 33.75Z" fill="#F6A300"/>
<path d="M45.0002 44.0625C46.5535 44.0625 47.8127 45.3217 47.8127 46.875V65.625C47.8127 67.1783 46.5535 68.4375 45.0002 68.4375C43.4469 68.4375 42.1877 67.1783 42.1877 65.625V46.875C42.1877 45.3217 43.4469 44.0625 45.0002 44.0625Z" fill="#F6A300"/>
<path fill-rule="evenodd" clip-rule="evenodd" d="M53.514 14.9723C49.4191 8.9811 40.5811 8.98107 36.4862 14.9723L34.8665 17.3421C24.7188 32.1892 16.0002 47.964 8.82751 64.4553L8.4892 65.2331C5.9615 71.0447 9.78036 77.6436 16.0786 78.3476C35.2998 80.4958 54.7004 80.4958 73.9215 78.3476C80.2198 77.6436 84.0387 71.0447 81.511 65.2331L81.1727 64.4553C73.9999 47.964 65.2813 32.1892 55.1337 17.3421L53.514 14.9723ZM41.1301 18.1464C42.9915 15.4231 47.0087 15.4231 48.87 18.1464L50.4897 20.5162C60.437 35.07 68.9834 50.5332 76.0144 66.6988L76.3527 67.4766C77.3706 69.8168 75.8328 72.4739 73.2967 72.7574C54.4909 74.8592 35.5093 74.8592 16.7034 72.7574C14.1673 72.4739 12.6296 69.8168 13.6474 67.4766L13.9857 66.6988C21.0168 50.5333 29.5632 35.07 39.5104 20.5162L41.1301 18.1464Z" fill="#F6A300"/>
</svg>
