<svg width="80" height="42" viewBox="0 0 80 42" fill="none" xmlns="http://www.w3.org/2000/svg">
<path fill-rule="evenodd" clip-rule="evenodd" d="M54.0523 3H52.0273V37.4956H54.0523V3ZM56.5464 31.775V26.8748H58.5714V31.775C58.5714 34.5813 59.6798 36.1356 61.5982 36.1356C63.5166 36.1356 64.625 34.5813 64.625 31.775V26.8748H66.65V31.775C66.65 35.8981 64.689 38.0784 61.5982 38.0784C58.5074 38.0568 56.5464 35.8981 56.5464 31.775ZM16.0037 32.2284C16.0037 34.5598 17.3679 36.2004 19.3076 36.2004C21.29 36.2004 22.7182 34.4519 22.6968 32.4227C22.6968 29.8539 21.1834 28.3212 19.3289 28.3212C17.4745 28.3212 16.0037 29.8107 16.0037 32.2284ZM16.025 27.9327C16.9203 27.0044 18.0713 26.4 19.3503 26.4C22.4197 26.4 24.7432 28.5587 24.7645 32.4011C24.7645 35.5096 22.3558 38.0352 19.3289 38.0352C19.1547 38.0352 18.9805 38.0174 18.7904 37.998L18.7321 37.9921C17.5811 37.841 16.6645 37.3876 15.9824 36.8264C15.8758 36.7616 15.7906 36.6753 15.7053 36.589L15.7053 36.5889L15.5134 36.3947L15.4708 36.3515C14.2771 35.0563 14.0426 33.4157 14 32.5954V3.08637H16.025V27.9327ZM44.5032 36.2004C42.5634 36.2004 41.1992 34.5598 41.1992 32.2284C41.1992 29.8107 42.67 28.3212 44.5245 28.3212C46.379 28.3212 47.8924 29.8539 47.8924 32.4227C47.9137 34.4519 46.4855 36.2004 44.5032 36.2004ZM44.5458 26.4C43.2669 26.4 42.1158 27.0044 41.2205 27.9327V3.08637H39.1955V32.5954C39.2382 33.4157 39.4726 35.0563 40.6663 36.3515L40.709 36.3947L40.9008 36.5889L40.9008 36.589C40.9861 36.6753 41.0713 36.7616 41.1779 36.8264C41.86 37.3876 42.7766 37.841 43.9276 37.9921L43.9857 37.998C44.176 38.0174 44.3502 38.0352 44.5245 38.0352C47.5513 38.0352 49.96 35.5096 49.96 32.4011C49.9387 28.5587 47.6153 26.4 44.5458 26.4ZM34.7186 33.1782H34.9105C35.4221 33.1782 36.3813 33.3941 36.2321 34.6677C35.4221 36.6321 33.5889 38.1 31.2868 38.1C28.196 38.1 25.9152 35.4448 25.9152 32.2716C25.9152 29.0983 28.196 26.4432 31.2868 26.4432C33.5463 26.4432 35.4221 27.8679 36.2321 29.8755C36.3813 30.998 35.5926 31.2786 35.0597 31.3218H34.5907C34.2923 29.638 33.0134 28.3428 31.2868 28.3428C29.6242 28.3428 28.3665 29.5732 28.0255 31.3218H34.5694V33.1782H28.0255C28.3452 34.9052 29.5602 36.1572 31.2868 36.1572C33.0134 36.1572 34.2923 34.862 34.5907 33.1782H34.7186Z" fill="white"/>
</svg>
