<svg width="90" height="90" viewBox="0 0 90 90" fill="none" xmlns="http://www.w3.org/2000/svg">
<path fill-rule="evenodd" clip-rule="evenodd" d="M25.9384 19.8449C31.5807 16.0748 38.2143 14.0625 45.0003 14.0625C51.7863 14.0625 58.4199 16.0748 64.0622 19.8449C66.8094 21.6805 69.2615 23.8926 71.3543 26.4031L75.3458 22.4116C72.9831 19.6499 70.2419 17.2089 67.1873 15.1679C60.6199 10.7797 52.8988 8.4375 45.0003 8.4375C37.1018 8.4375 29.3806 10.7797 22.8133 15.1679C16.2459 19.556 11.1273 25.7931 8.10463 33.0904C5.082 40.3877 4.29115 48.4174 5.83207 56.1641C7.37299 63.9109 11.1765 71.0267 16.7616 76.6118C17.8599 77.7102 19.6407 77.7102 20.739 76.6118C21.8374 75.5135 21.8374 73.7327 20.739 72.6343C15.9406 67.8359 12.6729 61.7224 11.349 55.0667C10.0251 48.4111 10.7046 41.5124 13.3014 35.243C15.8983 28.9736 20.296 23.615 25.9384 19.8449ZM78.9308 27.3119L74.8273 31.4153C75.5274 32.6467 76.1531 33.9247 76.6991 35.243C79.296 41.5124 79.9755 48.4111 78.6516 55.0667C77.3277 61.7224 74.06 67.8359 69.2615 72.6343C68.1632 73.7327 68.1632 75.5135 69.2615 76.6118C70.3599 77.7102 72.1407 77.7102 73.239 76.6118C78.8241 71.0267 82.6276 63.9109 84.1685 56.1641C85.7094 48.4174 84.9186 40.3877 81.896 33.0904C81.0624 31.0781 80.0695 29.1464 78.9308 27.3119ZM64.9561 32.8013C63.3049 30.6852 61.3187 28.8338 59.0629 27.3265C54.9003 24.5451 50.0064 23.0605 45 23.0605C39.9937 23.0605 35.0998 24.5451 30.9371 27.3265C26.7745 30.1078 23.5302 34.0611 21.6143 38.6864C19.6985 43.3116 19.1972 48.4011 20.1739 53.3113C21.1506 58.2214 23.5614 62.7317 27.1014 66.2717C28.1997 67.37 29.9805 67.37 31.0788 66.2717C32.1772 65.1733 32.1772 63.3925 31.0788 62.2942C28.3255 59.5409 26.4504 56.0329 25.6908 52.2139C24.9312 48.3949 25.321 44.4364 26.8111 40.839C28.3012 37.2415 30.8246 34.1668 34.0622 32.0035C37.2998 29.8402 41.1062 28.6855 45 28.6855C48.8938 28.6855 52.7002 29.8402 55.9378 32.0035C57.8872 33.3061 59.5777 34.9391 60.9397 36.8177L64.9561 32.8013ZM63.7795 42.4631L68.1367 38.1059C68.2221 38.2982 68.3051 38.4917 68.3857 38.6864C70.3016 43.3116 70.8028 48.4011 69.8261 53.3113C68.8494 58.2214 66.4387 62.7317 62.8986 66.2717C61.8003 67.37 60.0195 67.37 58.9212 66.2717C57.8228 65.1733 57.8228 63.3925 58.9212 62.2942C61.6745 59.5409 63.5496 56.0329 64.3092 52.2139C64.9561 48.9617 64.7694 45.6084 63.7795 42.4631ZM54.1485 43.6089C52.4278 40.3115 48.9768 38.0605 45 38.0605C39.3046 38.0605 34.6875 42.6776 34.6875 48.373C34.6875 52.3498 36.9385 55.8008 40.2359 57.5215L44.7059 53.0515C42.2541 52.8997 40.3125 50.8631 40.3125 48.373C40.3125 45.7842 42.4112 43.6855 45 43.6855C47.4901 43.6855 49.5266 45.6271 49.6784 48.0789L54.1485 43.6089ZM54.8692 51.3734L48.0004 58.2423C51.283 57.2456 53.8726 54.656 54.8692 51.3734Z" fill="#F6A300"/>
<path d="M23 86L86 23" stroke="#F6A300" stroke-width="6" stroke-linecap="round"/>
</svg>
